<?xml version="1.0" standalone="no"?>
<!DOCTYPE svg PUBLIC "-//W3C//DTD SVG 1.1//EN" "http://www.w3.org/Graphics/SVG/1.1/DTD/svg11.dtd">
<svg xmlns="http://www.w3.org/2000/svg">
<metadata>Copyright (C) 2020 by original authors @ fontello.com</metadata>
<defs>
<font id="fontello" horiz-adv-x="1000" >
<font-face font-family="fontello" font-weight="400" font-stretch="normal" units-per-em="1000" ascent="850" descent="-150" />
<missing-glyph horiz-adv-x="1000" />
<glyph glyph-name="ico-add-36px" unicode="&#xe800;" d="M111 350a389 389 0 0 0 389 389 389 389 0 0 0 389-389 389 389 0 0 0-389-389 389 389 0 0 0-389 389z m49 0a341 341 0 0 1 340-340 341 341 0 0 1 340 340 341 341 0 0 1-340 340 341 341 0 0 1-340-340z m316-170v146h-146a24 24 0 0 0-24 24 24 24 0 0 0 24 24h146v146a24 24 0 0 0 24 24 24 24 0 0 0 24-24v-146h146a24 24 0 0 0 24-24 24 24 0 0 0-24-24h-146v-146a24 24 0 0 0-24-24 24 24 0 0 0-24 24z" horiz-adv-x="1000" />

<glyph glyph-name="ico-arrow-login-24px" unicode="&#xe801;" d="M674-9a36 36 0 0 0-51 50l256 255h-843a36 36 0 0 0-36 36 36 36 0 0 0 36 35h843l-256 255a36 36 0 0 0 0 51 35 35 0 0 0 51 0l316-316a36 36 0 0 0 0-50z" horiz-adv-x="1000" />

<glyph glyph-name="ico-board-24px" unicode="&#xe802;" d="M554-25a58 58 0 0 0-58 58v325a58 58 0 0 0 58 58h175a89 89 0 0 0 63-26l57-57a89 89 0 0 0 26-63v-237a58 58 0 0 0-58-58z m-3 383v-325a3 3 0 0 1 3-3h263a3 3 0 0 1 3 3v237a35 35 0 0 1-10 25l-56 56a35 35 0 0 1-25 10h-175a3 3 0 0 1-3-3z m-337-290a89 89 0 0 0-89 89v386a89 89 0 0 0 89 89h35v4a28 28 0 0 0 27 27h31a89 89 0 0 0 170 0h31a28 28 0 0 0 27-27v-4h35a89 89 0 0 0 89-89v-62a28 28 0 1 0-55 0v62a34 34 0 0 1-34 34h-35v-3a58 58 0 0 0-58-58h-170a58 58 0 0 0-58 58v3h-35a34 34 0 0 1-34-34v-386a34 34 0 0 1 34-34h217a28 28 0 1 0 0-55z m90 506a3 3 0 0 1 3-3h170a3 3 0 0 1 3 3v34h-26a28 28 0 0 0-28 28 34 34 0 1 1-68 0 28 28 0 0 0-28-28h-26z m308-475a28 28 0 0 0 0 55h139a28 28 0 0 0 0-55z m0 92a28 28 0 0 0 0 55h139a28 28 0 0 0 0-55z" horiz-adv-x="1000" />

<glyph glyph-name="ico-check-gray-24px" unicode="&#xe803;" d="M83 350a417 417 0 0 0 417 417 417 417 0 0 0 417-417 417 417 0 0 0-417-417 417 417 0 0 0-417 417z m52 0a365 365 0 0 1 365-365 365 365 0 0 1 365 365 365 365 0 0 1-365 365 365 365 0 0 1-365-365z m308-131l-113 113a26 26 0 0 0 0 36 26 26 0 0 0 37 0l94-94 207 207a26 26 0 0 0 37 0 26 26 0 0 0 0-36l-226-226a26 26 0 0 0-18-8 26 26 0 0 0-18 8z" horiz-adv-x="1000" />

<glyph glyph-name="ico-check-signup-24px" unicode="&#xe804;" d="M985 757a42 42 0 0 1-59-6l-554-672-301 301a42 42 0 0 1-59-59l334-334a41 41 0 0 1 29-12h2a41 41 0 0 1 30 15l584 708a42 42 0 0 1-6 59" horiz-adv-x="1000" />

<glyph glyph-name="ico-copy-16px" unicode="&#xe805;" d="M246-25a89 89 0 0 0-90 89v495a89 89 0 0 0 90 89h15a28 28 0 1 0 0-55h-15a34 34 0 0 1-35-34v-495a34 34 0 0 1 35-34h370a34 34 0 0 1 34 34v16a28 28 0 1 0 55 0v-16a89 89 0 0 0-89-89z m154 154a89 89 0 0 0-89 90v417a89 89 0 0 0 89 89h263a121 121 0 0 0 85-35l61-62a119 119 0 0 0 36-85v-324a89 89 0 0 0-90-90z m-34 507v-417a34 34 0 0 1 34-34h355a34 34 0 0 1 34 34v324a65 65 0 0 1-19 46l-61 62a66 66 0 0 1-46 19h-263a34 34 0 0 1-34-34z m96-367a28 28 0 0 0 0 55h231a28 28 0 1 0 0-55z m0 92a28 28 0 0 0 0 55h231a28 28 0 1 0 0-55z m0 93a28 28 0 0 0 0 55h231a28 28 0 1 0 0-55z" horiz-adv-x="1000" />

<glyph glyph-name="ico-creditcard-24px" unicode="&#xe806;" d="M212 81a87 87 0 0 0-87 86v347a87 87 0 0 0 87 86h577a87 87 0 0 0 86-86v-347a87 87 0 0 0-86-86z m-29 86a29 29 0 0 1 29-28h577a29 29 0 0 1 28 28v248h-634z m0 347v-41h634v41a29 29 0 0 1-28 28h-577a29 29 0 0 1-29-28z m86-318a29 29 0 0 0-29 29v23a29 29 0 0 0 29 29h23a29 29 0 0 0 29-29v-23a29 29 0 0 0-29-29z" horiz-adv-x="1000" />

<glyph glyph-name="ico-delete-24px" unicode="&#xe808;" d="M318-25a89 89 0 0 0-90 89v374h-34a28 28 0 0 0-27 28v77a89 89 0 0 0 89 89h96v35a58 58 0 0 0 58 58h201a58 58 0 0 0 59-58v-35h96a89 89 0 0 0 89-89v-77a28 28 0 0 0-28-28h-34v-374a89 89 0 0 0-89-89z m-35 89a34 34 0 0 1 35-34h386a34 34 0 0 1 34 34v374h-455z m-61 479v-50h578v50a34 34 0 0 1-34 34h-510a34 34 0 0 1-34-34z m185 124v-35h208v35a3 3 0 0 1-4 3h-201a3 3 0 0 1-3-3z m208-541v201a28 28 0 1 0 55 0v-201a28 28 0 1 0-55 0z m-132 0v201a28 28 0 0 0 55 0v-201a28 28 0 0 0-55 0z m-131 0v201a28 28 0 0 0 55 0v-201a28 28 0 0 0-55 0z" horiz-adv-x="1000" />

<glyph glyph-name="ico-download-24px" unicode="&#xe80a;" d="M217-25a92 92 0 0 0-92 92v138a30 30 0 1 0 60 0v-138a31 31 0 0 1 32-31h566a31 31 0 0 1 32 31v138a30 30 0 1 0 60 0v-138a92 92 0 0 0-92-92z m280 215h0a30 30 0 0 0-18 8l0 0-123 123a30 30 0 0 0 43 43l71-71v402a30 30 0 0 0 60 0v-402l71 71a30 30 0 0 0 43 0 30 30 0 0 0 0-43l-123-123a30 30 0 0 0-15-8l0 0-2 0-1 0a27 27 0 0 0-3 0 28 28 0 0 0-3 0z" horiz-adv-x="1000" />

<glyph glyph-name="ico-empty-68px" unicode="&#xe80c;" d="M871 680a25 25 0 0 1-24 11c-1 0-1 0-1 0l-382 56a25 25 0 0 1-13-1l-305-113-1 0c0 0 0 0-1 0a26 26 0 0 1-4-3c-1 0-1 0-2-1a25 25 0 0 1-4-4c0 0 0 0 0 0l-129-177a25 25 0 0 1 14-39l112-29v-277a25 25 0 0 1 18-24l410-126c0 0 0 0 1 0a26 26 0 0 1 6-1h1a25 25 0 0 1 7 1c0 0 1 1 2 1a25 25 0 0 1 3 1l294 164a25 25 0 0 1 13 22v277l100 47a25 25 0 0 1 9 38z m-408 16l298-44-198-92-313 58z m-297-114l358-66-105-158-351 90z m16-460v245l241-63a26 26 0 0 1 7-1 25 25 0 0 1 21 12l90 135v-438z m653 34l-243-136v400l44-94a25 25 0 0 1 15-13 25 25 0 0 1 8-2 26 26 0 0 1 11 3l165 79v-237z m-164 215l-71 151 242 112 95-136z" horiz-adv-x="1000" />

<glyph glyph-name="ico-folder-24px" unicode="&#xe80d;" d="M811 583v43a71 71 0 0 1-70 71h-294l-9 14a29 29 0 0 1-25 14h-217a71 71 0 0 1-71-71v-537a71 71 0 0 1 71-71h608a71 71 0 0 1 71 71v396a71 71 0 0 1-64 70m-56 0h-239l-35 57h260a14 14 0 0 0 14-14z m63-70v-396a14 14 0 0 0-14-14h-608a14 14 0 0 0-14 14v537a14 14 0 0 0 14 14h202l78-128a29 29 0 0 1 24-13h304a14 14 0 0 0 14-14" horiz-adv-x="1000" />

<glyph glyph-name="ico-info-24px" unicode="&#xe80f;" d="M217-25a92 92 0 0 0-92 92v566a92 92 0 0 0 92 92h566a92 92 0 0 0 92-92v-566a92 92 0 0 0-92-92z m-32 658v-566a31 31 0 0 1 32-31h566a31 31 0 0 1 32 31v566a31 31 0 0 1-32 32h-566a31 31 0 0 1-32-32z m277-467a38 38 0 1 0 38-38 38 38 0 0 0-38 38z m8 115v261a30 30 0 1 0 60 0v-261a30 30 0 1 0-60 0z" horiz-adv-x="1000" />

<glyph glyph-name="ico-list-24px" unicode="&#xe810;" d="M125 127a50 50 0 1 0 50-50 50 50 0 0 0-50 50z m211-40a38 38 0 1 0 0 75h502a38 38 0 0 0 0-75z m-211 272a50 50 0 1 0 50-50 50 50 0 0 0-50 50z m211-37a38 38 0 1 0 0 75h502a38 38 0 0 0 0-75z m-211 269a50 50 0 1 0 50-50 50 50 0 0 0-50 50z m211-34a38 38 0 1 0 0 75h502a38 38 0 0 0 0-75z" horiz-adv-x="1000" />

<glyph glyph-name="ico-mail-24px" unicode="&#xe813;" d="M840 645a68 68 0 0 1-50 21h-609a68 68 0 0 1-50-21 68 68 0 0 1-20-50v-450a68 68 0 0 1 20-50 68 68 0 0 1 50-21h609a71 71 0 0 1 71 71v450a68 68 0 0 1-21 50z m-41-48c0 0 0-1 0-2l0-5v-10a100 100 0 0 0-19-52 191 191 0 0 0-40-47c-53-41-108-85-166-131l-15-12c-8-7-14-12-19-16s-10-8-18-13a107 107 0 0 0-20-11 45 45 0 0 0-16-3h-1a45 45 0 0 0-16 3 107 107 0 0 0-20 11c-7 5-13 10-18 13s-11 9-19 16l-14 12c-56 44-112 88-166 131a141 141 0 0 0-59 114 8 8 0 0 0 2 6 8 8 0 0 0 6 3h608a12 12 0 0 1 7-1 12 12 0 0 1 3-6z m-429-305c14-12 26-21 35-28a196 196 0 0 1 36-20 108 108 0 0 1 44-11h1a108 108 0 0 1 44 11 196 196 0 0 1 37 20c9 7 21 16 35 28 43 36 102 84 176 140a246 246 0 0 1 21 20v-307a9 9 0 0 0-9-9h-609a8 8 0 0 0-6 3 8 8 0 0 0-2 6v307a247 247 0 0 1 21-20c74-57 133-104 176-140z" horiz-adv-x="1000" />

<glyph glyph-name="ico-new-24px" unicode="&#xe814;" d="M217-25a92 92 0 0 0-92 92v566a92 92 0 0 0 92 92h566a92 92 0 0 0 92-92v-566a92 92 0 0 0-92-92z m-30 658v-566a30 30 0 0 1 30-30h566a30 30 0 0 1 30 30v566a30 30 0 0 1-30 30h-566a30 30 0 0 1-30-30z m282-444v130h-130a31 31 0 1 0 0 62h130v130a31 31 0 0 0 62 0v-130h130a31 31 0 1 0 0-62h-130v-130a31 31 0 0 0-62 0z" horiz-adv-x="1000" />

<glyph glyph-name="ico-notification-24px" unicode="&#xe815;" d="M735 189v220a233 233 0 0 1-48 141 238 238 0 0 1-116 83v17a74 74 0 0 1-71 75 74 74 0 0 1-72-75v-17a238 238 0 0 1-116-83 233 233 0 0 1-47-141v-220a71 71 0 0 1-57-69v-34a31 31 0 0 1 32-32h158a105 105 0 0 1 204 0h158a31 31 0 0 1 31 32v34a71 71 0 0 1-56 69m-235-162a53 53 0 0 0-47 27h93a53 53 0 0 0-46-27m-183 164v218a183 183 0 1 0 365 0v-218z m422-71v-14h-478v14a19 19 0 0 0 18 19h441a19 19 0 0 0 19-19m-220 523c-6 1-13 1-19 1s-13 0-20-1v7a22 22 0 0 0 20 23 22 22 0 0 0 19-23z" horiz-adv-x="1000" />

<glyph glyph-name="ico-play-speaker-16px" unicode="&#xe816;" d="M467 656l-215-166h-113a29 29 0 0 1-29-30v-234a29 29 0 0 1 29-29h113l215-167a29 29 0 0 1 47 23v580a29 29 0 0 1-47 23m-234-401h-65v176h65z m222-142l-164 127v206l164 127z m405 230a374 374 0 0 0-110-265 29 29 0 0 0-41 41 316 316 0 0 1 0 448 29 29 0 0 0 41 41 374 374 0 0 0 110-265m-114 0a259 259 0 0 0-77-184 29 29 0 1 0-41 41 202 202 0 0 1 0 286 29 29 0 0 0 41 41 259 259 0 0 0 77-184m-115 0a146 146 0 0 0-43-103 29 29 0 0 0-41 41 88 88 0 0 1 0 125 29 29 0 0 0 41 41 146 146 0 0 0 43-104" horiz-adv-x="1000" />

<glyph glyph-name="ico-question-24px" unicode="&#xe817;" d="M125 350a375 375 0 0 0 375 375 375 375 0 0 0 375-375 375 375 0 0 0-375-375 375 375 0 0 0-375 375z m58 0a318 318 0 0 1 317-317 318 318 0 0 1 317 317 318 318 0 0 1-317 317 318 318 0 0 1-317-317z m280-185a37 37 0 0 0 37 37 37 37 0 0 0 37-37 37 37 0 0 0-37-36 37 37 0 0 0-36 36z m8 124v31a75 75 0 0 0 50 70 89 89 0 0 1 58 75 79 79 0 0 1-79 79 79 79 0 0 1-79-79 29 29 0 0 0-29-28 29 29 0 0 0-29 28 137 137 0 0 0 137 137 137 137 0 0 0 136-137 148 148 0 0 0-96-129 17 17 0 0 1-11-16v-31a29 29 0 0 0-29-29 29 29 0 0 0-29 29z" horiz-adv-x="1000" />

<glyph glyph-name="ico-save-24px" unicode="&#xe818;" d="M217-25a92 92 0 0 0-92 92v566a92 92 0 0 0 92 92h475a123 123 0 0 0 86-36l61-61a121 121 0 0 0 36-86v-475a92 92 0 0 0-92-92z m-32 658v-566a31 31 0 0 1 32-31h566a31 31 0 0 1 32 31v475a61 61 0 0 1-19 43l-60 62a62 62 0 0 1-44 18h-62v-139a30 30 0 0 0-30-30h-322a30 30 0 0 0-30 30v139h-31a31 31 0 0 1-32-32z m123-77h262v109h-262z m47-298a145 145 0 1 0 145-145 145 145 0 0 0-145 145z m60 0a85 85 0 1 1 85 85 85 85 0 0 1-85-85z" horiz-adv-x="1000" />

<glyph glyph-name="ico-saveas-24px" unicode="&#xe819;" d="M549-24a234 234 0 0 0-83 103h-223a76 76 0 0 0-76 76v453a76 76 0 0 0 76 75h379a101 101 0 0 0 71-29l48-49a100 100 0 0 0 30-71v-150a234 234 0 0 0 103-83 232 232 0 0 0 43-134 234 234 0 0 0-234-234 232 232 0 0 0-134 43z m34 339a180 180 0 0 1-37-34 180 180 0 0 1-23-33 178 178 0 0 1-16-47 180 180 0 0 1-3-34 179 179 0 0 1 5-40 178 178 0 0 1 12-35 180 180 0 0 1 162-104 179 179 0 0 1 179 179 180 180 0 0 1-103 163 178 178 0 0 1-35 12 179 179 0 0 1-41 4 178 178 0 0 1-100-31z m-362 293v-453a22 22 0 0 1 22-22h209l0 1q-1 3-1 5l0 1c0 2 0 3 0 5l0 1q0 2-1 4c0 0 0 1 0 2s0 2 0 3l0 2q0 2 0 3v2q0 3 0 5a235 235 0 0 0 2 24 119 119 0 0 0-101 117 119 119 0 0 0 119 119 118 118 0 0 0 100-56 233 233 0 0 0 119 30h2l3 0 2 0 4 0 2 0 3-1 2 0 4 0 1 0 5-1 1 0v136a46 46 0 0 1-11 30c-1 1-2 2-3 3l-48 49a47 47 0 0 1-33 14h-48v-108a27 27 0 0 0-27-27h-257a27 27 0 0 0-26 27v108h-22a22 22 0 0 1-22-23z m183-300a65 65 0 0 1 58-64 235 235 0 0 0 63 95 65 65 0 0 1-56 34 65 65 0 0 1-65-65z m-86 241h203v81h-203z m338-478v69h-69a27 27 0 0 0-27 27 27 27 0 0 0 27 27h69v69a27 27 0 0 0 27 28 27 27 0 0 0 28-28v-69h68a27 27 0 0 0 28-27 27 27 0 0 0-28-27h-69v-69a27 27 0 0 0-27-28 27 27 0 0 0-27 28z" horiz-adv-x="1000" />

<glyph glyph-name="signature" unicode="&#xe81b;" d="M2240 606a27 27 0 0 0 23-11 46 46 0 0 0 8-27 46 46 0 0 0-8-26 27 27 0 0 0-23-11h-119v-387a33 33 0 0 0-13-29 53 53 0 0 0-31-9 53 53 0 0 0-31 9 33 33 0 0 0-13 29v387h-120a27 27 0 0 0-23 11 46 46 0 0 0-8 26 46 46 0 0 0 8 27 27 27 0 0 0 24 11z m393 0a27 27 0 0 0 24-11 46 46 0 0 0 8-27 46 46 0 0 0-8-26 27 27 0 0 0-24-11h-118v-387a33 33 0 0 0-13-29 58 58 0 0 0-62 0 33 33 0 0 0-13 29v387h-120a26 26 0 0 0-23 11 46 46 0 0 0-8 26 46 46 0 0 0 8 27 27 27 0 0 0 23 11z m254 7a272 272 0 0 0 125-25 36 36 0 0 0 19-23 41 41 0 0 0-4-31 36 36 0 0 0-21-20 40 40 0 0 0-28 3 196 196 0 0 1-42 13 260 260 0 0 1-48 4 135 135 0 0 1-39-5 93 93 0 0 1-29-14 60 60 0 0 1-18-20 46 46 0 0 1-5-22v-4a54 54 0 0 1 4-23 46 46 0 0 1 16-17 122 122 0 0 1 31-15 445 445 0 0 1 52-13 255 255 0 0 0 124-54 121 121 0 0 0 37-91v-6a133 133 0 0 0-46-110 212 212 0 0 0-137-37 320 320 0 0 0-83 11 245 245 0 0 0-68 28 37 37 0 0 0-19 27 44 44 0 0 0 8 31 36 36 0 0 0 53 13 228 228 0 0 1 113-30 111 111 0 0 1 69 17 53 53 0 0 1 22 43v5a53 53 0 0 1-23 45 188 188 0 0 1-72 27 534 534 0 0 0-75 19 175 175 0 0 0-53 28 104 104 0 0 0-31 41 154 154 0 0 0-10 59v5a135 135 0 0 0 11 55 124 124 0 0 0 35 45 170 170 0 0 0 55 30 240 240 0 0 0 77 11m630-7a190 190 0 0 0 118-30 112 112 0 0 0 39-94v-9a133 133 0 0 0-4-33 93 93 0 0 0-14-30 91 91 0 0 0-24-23 115 115 0 0 0-37-16 158 158 0 0 0 42-12 99 99 0 0 0 32-22 98 98 0 0 0 20-35 138 138 0 0 0 8-47v-11a127 127 0 0 0-39-98 173 173 0 0 0-119-36h-156a65 65 0 0 0-46 13 63 63 0 0 0-13 45v380a63 63 0 0 0 13 45 65 65 0 0 0 46 13z m-105-202h72a328 328 0 0 1 50 4 78 78 0 0 1 31 10 38 38 0 0 1 15 21 104 104 0 0 1 4 32v6a43 43 0 0 1-24 44 215 215 0 0 1-80 11h-68z m0-220h80q29 0 51 2a99 99 0 0 1 35 10 47 47 0 0 1 21 21 84 84 0 0 1 7 37v9a80 80 0 0 1-5 31 46 46 0 0 1-19 21 110 110 0 0 1-38 13 342 342 0 0 1-58 4h-74z m403 297a53 53 0 0 0 30-9 31 31 0 0 0 14-28v-181a129 129 0 0 1 5-41 64 64 0 0 1 15-25 54 54 0 0 1 23-13 100 100 0 0 1 28-4 97 97 0 0 1 28 4 67 67 0 0 1 25 15 81 81 0 0 1 20 27 102 102 0 0 1 8 43v175a31 31 0 0 0 13 28 55 55 0 0 0 61 0 31 31 0 0 0 13-28v-303a30 30 0 0 0-13-26 52 52 0 0 0-57 0 30 30 0 0 0-13 26v15h-1a84 84 0 0 0-21-24 118 118 0 0 0-27-16 157 157 0 0 0-31-9 167 167 0 0 0-31-3 130 130 0 0 0-96 35 142 142 0 0 0-36 105v200a31 31 0 0 0 13 28 53 53 0 0 0 30 8m431 149a54 54 0 0 0 39-16 50 50 0 0 0 16-37 50 50 0 0 0-16-38 56 56 0 0 0-77 0 50 50 0 0 0-16 38 50 50 0 0 0 16 37 54 54 0 0 0 38 16m0-145a52 52 0 0 0 31-9 32 32 0 0 0 13-27v-305a32 32 0 0 0-13-28 55 55 0 0 0-61 0 31 31 0 0 0-13 28v304a31 31 0 0 0 13 28 53 53 0 0 0 30 9m192 143a52 52 0 0 0 31-9 32 32 0 0 0 13-28v-446a32 32 0 0 0-13-29 56 56 0 0 0-61 0 32 32 0 0 0-13 29v446a32 32 0 0 0 13 28 52 52 0 0 0 30 9m422 0a52 52 0 0 0 30-9 32 32 0 0 0 13-28v-448a30 30 0 0 0-12-27 50 50 0 0 0-29-9 48 48 0 0 0-28 9 31 31 0 0 0-13 27v14h-2a84 84 0 0 0-44-40 176 176 0 0 0-65-11 131 131 0 0 0-109 46 215 215 0 0 0-37 136v18a262 262 0 0 0 11 80 161 161 0 0 0 31 58 127 127 0 0 0 48 34 163 163 0 0 0 62 12 167 167 0 0 0 40-5 147 147 0 0 0 29-10 77 77 0 0 0 20-13 84 84 0 0 0 11-14v143a31 31 0 0 0 14 28 53 53 0 0 0 30 9m-129-214q-81 0-81-110v-14a150 150 0 0 1 18-83 66 66 0 0 1 59-27 96 96 0 0 1 39 8 79 79 0 0 1 28 20 93 93 0 0 1 18 30 106 106 0 0 1 6 36v64a75 75 0 0 1-5 27 70 70 0 0 1-16 25 84 84 0 0 1-27 17 99 99 0 0 1-39 7m427 72a197 197 0 0 0 68-11 152 152 0 0 0 52-32 140 140 0 0 0 35-51 188 188 0 0 0 12-70v-1a62 62 0 0 0-13-45 66 66 0 0 0-46-12h-196v-2a83 83 0 0 1 23-60 93 93 0 0 1 69-24 254 254 0 0 1 51 5 212 212 0 0 1 45 14 35 35 0 0 0 27 2 32 32 0 0 0 19-19 43 43 0 0 0 3-28 31 31 0 0 0-18-20 235 235 0 0 0-57-20 359 359 0 0 0-73-7 174 174 0 0 0-128 46 183 183 0 0 0-46 135v18a183 183 0 0 0 47 136 172 172 0 0 0 126 46m-1-72a86 86 0 0 1-65-23 81 81 0 0 1-22-58v-5h171v7a83 83 0 0 1-19 57 82 82 0 0 1-65 22m434 72a75 75 0 0 0 37-8 35 35 0 0 0 17-18 47 47 0 0 0 1-25 50 50 0 0 0-16-30 30 30 0 0 0-27-8c-6 1-12 3-18 4a71 71 0 0 1-17 2 69 69 0 0 1-29-6 75 75 0 0 1-24-17 80 80 0 0 1-16-26 86 86 0 0 1-6-32v-178a31 31 0 0 0-13-28 55 55 0 0 0-60 0 31 31 0 0 0-14 28v302a30 30 0 0 0 13 27 50 50 0 0 0 29 9 51 51 0 0 0 29-9 30 30 0 0 0 13-27v-24h1a117 117 0 0 0 41 46 104 104 0 0 0 59 18m-4086 184h-869v91h45a45 45 0 1 1 0 90h-181a45 45 0 1 1 0-90h45v-91h-500a45 45 0 0 1-45-45v-541a45 45 0 0 1 45-46h500v-90h-45a45 45 0 1 1 0-90h181a45 45 0 1 1 0 90h-45v90h869a45 45 0 0 1 45 46v541a45 45 0 0 1-45 45m-1414-90h454v-451h-454z m1368-451h-823v451h823z m-1050 362h-182a45 45 0 1 1 0-91h46v-136a45 45 0 1 1 91 0v136h45a45 45 0 0 1 0 91" horiz-adv-x="5647" />

<glyph glyph-name="ico-delete-16px" unicode="&#xe81c;" d="M307-25a89 89 0 0 0-89 89v374h-34a28 28 0 0 0-28 28v77a89 89 0 0 0 90 89h96v35a58 58 0 0 0 58 58h201a58 58 0 0 0 58-58v-35h96a89 89 0 0 0 89-89v-77a28 28 0 0 0-27-28h-34v-374a89 89 0 0 0-89-89z m-34 89a34 34 0 0 1 34-34h387a34 34 0 0 1 34 34v374h-455z m-62 479v-50h578v50a34 34 0 0 1-34 34h-509a34 34 0 0 1-35-34z m186 124v-35h207v35a3 3 0 0 1-3 3h-201a3 3 0 0 1-3-3z m207-541v201a28 28 0 1 0 55 0v-201a28 28 0 1 0-55 0z m-131 0v201a28 28 0 1 0 55 0v-201a28 28 0 0 0-55 0z m-131 0v201a28 28 0 1 0 55 0v-201a28 28 0 1 0-55 0z" horiz-adv-x="1000" />

<glyph glyph-name="ico-down-24px" unicode="&#xe81d;" d="M741 466a30 30 0 0 1-22 9h-438a30 30 0 0 1-22-9 30 30 0 0 1-9-22 30 30 0 0 1 9-22l219-219a31 31 0 0 1 44 0l219 219a30 30 0 0 1 9 22 30 30 0 0 1-9 22" horiz-adv-x="1000" />

<glyph glyph-name="ico-edit-24px" unicode="&#xe81e;" d="M400 6a25 25 0 1 0 0 50h450a25 25 0 1 0 0-50z m-268 7a25 25 0 0 0-6 23l36 155a25 25 0 0 0 7 11l358 358 0 1 1 1 100 100a77 77 0 0 0 107 0l47-47a75 75 0 0 0 0-106l-460-460a25 25 0 0 0-12-6l-154-37a25 25 0 0 0-6 0 25 25 0 0 0-18 7z m77 159l-25-108 108 26 336 336-83 82z m455 455l-84-84 83-82 83 83a25 25 0 0 1 0 36l-47 47a26 26 0 0 1-35 0z" horiz-adv-x="1000" />

<glyph glyph-name="ico-lock-24px" unicode="&#xe81f;" d="M279-25a70 70 0 0 0-71 70v328a70 70 0 0 0 71 71h23v94a188 188 0 0 0 188 187 188 188 0 0 0 187-187v-94h24a70 70 0 0 0 70-71v-328a70 70 0 0 0-70-70z m-24 399v-329a24 24 0 0 1 24-23h422a24 24 0 0 1 23 23v329a24 24 0 0 1-23 23h-422a24 24 0 0 1-24-23z m94 164v-94h281v94a141 141 0 0 1-140 140 141 141 0 0 1-141-140z m117-414v75a63 63 0 0 0-39 57 63 63 0 0 0 63 63 63 63 0 0 0 62-63 63 63 0 0 0-39-57v-75a23 23 0 0 0-23-24 23 23 0 0 0-24 24z m8 132a16 16 0 0 1 16-15 16 16 0 0 1 15 15 16 16 0 0 1-15 16 16 16 0 0 1-16-16z" horiz-adv-x="1000" />

<glyph glyph-name="ico-logout-24px" unicode="&#xe820;" d="M217-25a92 92 0 0 0-92 92v566a92 92 0 0 0 92 92h138a30 30 0 0 0 30-30 30 30 0 0 0-30-30h-138a31 31 0 0 1-31-31v-567a31 31 0 0 1 31-31h138a30 30 0 0 0 30-31 30 30 0 0 0-30-30z m484 231a30 30 0 0 0 0 43l71 71h-402a30 30 0 0 0-30 30 30 30 0 0 0 30 30h402l-71 71a30 30 0 0 0 0 43 30 30 0 0 0 43 0l122-123a32 32 0 0 0 5-7l0 0c1-1 1-1 1-2l1-1c0 0 0-1 0-1l0 0c0-1 1-1 1-1s0-1 0-2l0 0c0 0 0-1 0-1s0-1 0-2v0a8 8 0 0 0 0-1 31 31 0 0 0 0-6 7 7 0 0 0 0-1v0c0-1 0-1 0-2l0-1 0 0c0-1 0-1 0-2l-1-1 0 0c0-1 0-1 0-2l-1 0 0-1c0 0 0-1 0-1s-1-1-1-1l0-1a11 11 0 0 0-1-1 22 22 0 0 0-1-2l-1 0a27 27 0 0 0-2-2l-122-123a30 30 0 0 0-22-9 30 30 0 0 0-21 9z" horiz-adv-x="1000" />

<glyph glyph-name="ico-handle-24px" unicode="&#xe821;" d="M99 31a36 36 0 1 0 0 73h802a36 36 0 0 0 0-73z m0 279a36 36 0 1 0 0 73h802a36 36 0 0 0 0-73z m0 280a36 36 0 1 0 0 73h802a36 36 0 0 0 0-73z" horiz-adv-x="1000" />

<glyph glyph-name="ico-speaker-16px" unicode="&#xe822;" d="M500 131a34 34 0 0 0-56-26l-186 154h-99a34 34 0 0 0-34 34v136a34 34 0 0 0 34 34h99l186 154a34 34 0 0 0 56-26z m131 53h-2a34 34 0 0 0-24 10l-5 5a34 34 0 0 0-3 44 198 198 0 0 1-6 243 34 34 0 0 0 3 45l4 5a33 33 0 0 0 26 10 34 34 0 0 0 25-13 273 273 0 0 0 7-335 34 34 0 0 0-25-14m141-105a34 34 0 0 0-25-12h-1a34 34 0 0 0-24 10l-5 4a34 34 0 0 0-2 46 363 363 0 0 1-6 475 34 34 0 0 0 2 46l4 5a33 33 0 0 0 25 10 34 34 0 0 0 25-12 438 438 0 0 0 7-572" horiz-adv-x="1000" />
</font>
</defs>
</svg>
